<mxfile host="Electron" agent="Mozilla/5.0 (Macintosh; Intel Mac OS X 10_15_7) AppleWebKit/537.36 (KHTML, like Gecko) draw.io/26.1.1 Chrome/132.0.6834.210 Electron/34.3.3 Safari/537.36" version="26.1.1">
  <diagram id="C5RBs43oDa-KdzZeNtuy" name="Page-1">
    <mxGraphModel dx="3207" dy="3436" grid="1" gridSize="10" guides="1" tooltips="1" connect="1" arrows="1" fold="1" page="1" pageScale="1" pageWidth="827" pageHeight="1169" math="0" shadow="0">
      <root>
        <mxCell id="WIyWlLk6GJQsqaUBKTNV-0" />
        <mxCell id="WIyWlLk6GJQsqaUBKTNV-1" parent="WIyWlLk6GJQsqaUBKTNV-0" />
        <mxCell id="8yurtoqpaKrfjurdvBEN-20" value="&amp;lt;&amp;lt;interface&amp;gt;&amp;gt;&lt;br style=&quot;border-color: var(--border-color); padding: 0px; margin: 0px; font-style: italic; font-weight: 400;&quot;&gt;&lt;span style=&quot;font-weight: 400;&quot;&gt;&lt;i&gt;NetworkProvider&lt;/i&gt;&lt;/span&gt;" style="swimlane;fontStyle=1;align=center;verticalAlign=top;childLayout=stackLayout;horizontal=1;startSize=50;horizontalStack=0;resizeParent=1;resizeParentMax=0;resizeLast=0;collapsible=1;marginBottom=0;whiteSpace=wrap;html=1;" vertex="1" parent="WIyWlLk6GJQsqaUBKTNV-1">
          <mxGeometry x="-520" y="-1011" width="240" height="154" as="geometry" />
        </mxCell>
        <mxCell id="8yurtoqpaKrfjurdvBEN-21" value="&amp;nbsp;" style="text;strokeColor=none;fillColor=none;align=left;verticalAlign=top;spacingLeft=4;spacingRight=4;overflow=hidden;rotatable=0;points=[[0,0.5],[1,0.5]];portConstraint=eastwest;whiteSpace=wrap;html=1;" vertex="1" parent="8yurtoqpaKrfjurdvBEN-20">
          <mxGeometry y="50" width="240" height="60" as="geometry" />
        </mxCell>
        <mxCell id="8yurtoqpaKrfjurdvBEN-22" value="" style="line;strokeWidth=1;fillColor=none;align=left;verticalAlign=middle;spacingTop=-1;spacingLeft=3;spacingRight=3;rotatable=0;labelPosition=right;points=[];portConstraint=eastwest;strokeColor=inherit;" vertex="1" parent="8yurtoqpaKrfjurdvBEN-20">
          <mxGeometry y="110" width="240" height="4" as="geometry" />
        </mxCell>
        <mxCell id="8yurtoqpaKrfjurdvBEN-23" value="+&lt;span style=&quot;text-wrap-mode: nowrap;&quot;&gt;&amp;nbsp;fetch(url: URL)&amp;nbsp;&lt;/span&gt;&lt;div&gt;&lt;span style=&quot;text-wrap-mode: nowrap;&quot;&gt;-&amp;gt; AnyPublisher&amp;lt;Data, Error&amp;gt;&lt;/span&gt;&lt;/div&gt;" style="text;strokeColor=none;fillColor=none;align=left;verticalAlign=top;spacingLeft=4;spacingRight=4;overflow=hidden;rotatable=0;points=[[0,0.5],[1,0.5]];portConstraint=eastwest;whiteSpace=wrap;html=1;" vertex="1" parent="8yurtoqpaKrfjurdvBEN-20">
          <mxGeometry y="114" width="240" height="40" as="geometry" />
        </mxCell>
        <mxCell id="8yurtoqpaKrfjurdvBEN-26" value="NetworkProviderImpl" style="swimlane;fontStyle=1;align=center;verticalAlign=top;childLayout=stackLayout;horizontal=1;startSize=26;horizontalStack=0;resizeParent=1;resizeParentMax=0;resizeLast=0;collapsible=1;marginBottom=0;whiteSpace=wrap;html=1;" vertex="1" parent="WIyWlLk6GJQsqaUBKTNV-1">
          <mxGeometry x="-520" y="-1240" width="240" height="170" as="geometry" />
        </mxCell>
        <mxCell id="8yurtoqpaKrfjurdvBEN-27" value="- session: URLSession" style="text;strokeColor=none;fillColor=none;align=left;verticalAlign=top;spacingLeft=4;spacingRight=4;overflow=hidden;rotatable=0;points=[[0,0.5],[1,0.5]];portConstraint=eastwest;whiteSpace=wrap;html=1;" vertex="1" parent="8yurtoqpaKrfjurdvBEN-26">
          <mxGeometry y="26" width="240" height="26" as="geometry" />
        </mxCell>
        <mxCell id="8yurtoqpaKrfjurdvBEN-28" value="" style="line;strokeWidth=1;fillColor=none;align=left;verticalAlign=middle;spacingTop=-1;spacingLeft=3;spacingRight=3;rotatable=0;labelPosition=right;points=[];portConstraint=eastwest;strokeColor=inherit;" vertex="1" parent="8yurtoqpaKrfjurdvBEN-26">
          <mxGeometry y="52" width="240" height="98" as="geometry" />
        </mxCell>
        <mxCell id="8yurtoqpaKrfjurdvBEN-29" value="&amp;nbsp;" style="text;strokeColor=none;fillColor=none;align=left;verticalAlign=top;spacingLeft=4;spacingRight=4;overflow=hidden;rotatable=0;points=[[0,0.5],[1,0.5]];portConstraint=eastwest;whiteSpace=wrap;html=1;" vertex="1" parent="8yurtoqpaKrfjurdvBEN-26">
          <mxGeometry y="150" width="240" height="20" as="geometry" />
        </mxCell>
        <mxCell id="8yurtoqpaKrfjurdvBEN-30" value="" style="endArrow=block;dashed=1;endFill=0;endSize=12;html=1;rounded=0;" edge="1" parent="WIyWlLk6GJQsqaUBKTNV-1">
          <mxGeometry width="160" relative="1" as="geometry">
            <mxPoint x="-400.37" y="-1070" as="sourcePoint" />
            <mxPoint x="-400.37" y="-1014" as="targetPoint" />
          </mxGeometry>
        </mxCell>
        <mxCell id="8yurtoqpaKrfjurdvBEN-31" value="Use" style="endArrow=open;endSize=12;dashed=1;html=1;rounded=0;exitX=0.5;exitY=1;exitDx=0;exitDy=0;" edge="1" parent="WIyWlLk6GJQsqaUBKTNV-1">
          <mxGeometry x="0.0783" y="-10" width="160" relative="1" as="geometry">
            <mxPoint x="-199.45999999999998" y="-760" as="sourcePoint" />
            <mxPoint x="-319.46" y="-857" as="targetPoint" />
            <mxPoint as="offset" />
            <Array as="points">
              <mxPoint x="-199.45999999999998" y="-800" />
              <mxPoint x="-319.46" y="-800" />
            </Array>
          </mxGeometry>
        </mxCell>
        <mxCell id="8yurtoqpaKrfjurdvBEN-32" value="Use" style="endArrow=open;endSize=12;dashed=1;html=1;rounded=0;" edge="1" parent="WIyWlLk6GJQsqaUBKTNV-1">
          <mxGeometry x="0.0783" y="-10" width="160" relative="1" as="geometry">
            <mxPoint x="-600" y="-760" as="sourcePoint" />
            <mxPoint x="-480" y="-857" as="targetPoint" />
            <mxPoint as="offset" />
            <Array as="points">
              <mxPoint x="-600" y="-797" />
              <mxPoint x="-480" y="-797" />
            </Array>
          </mxGeometry>
        </mxCell>
        <mxCell id="8yurtoqpaKrfjurdvBEN-33" value="&amp;lt;&amp;lt;interface&amp;gt;&amp;gt;&lt;br&gt;MoviesRepository" style="swimlane;fontStyle=1;align=center;verticalAlign=top;childLayout=stackLayout;horizontal=1;startSize=40;horizontalStack=0;resizeParent=1;resizeParentMax=0;resizeLast=0;collapsible=1;marginBottom=0;whiteSpace=wrap;html=1;" vertex="1" parent="WIyWlLk6GJQsqaUBKTNV-1">
          <mxGeometry x="-321.8" y="-600" width="240" height="120" as="geometry" />
        </mxCell>
        <mxCell id="8yurtoqpaKrfjurdvBEN-34" value="&amp;nbsp;" style="text;strokeColor=none;fillColor=none;align=left;verticalAlign=top;spacingLeft=4;spacingRight=4;overflow=hidden;rotatable=0;points=[[0,0.5],[1,0.5]];portConstraint=eastwest;whiteSpace=wrap;html=1;" vertex="1" parent="8yurtoqpaKrfjurdvBEN-33">
          <mxGeometry y="40" width="240" height="26" as="geometry" />
        </mxCell>
        <mxCell id="8yurtoqpaKrfjurdvBEN-35" value="" style="line;strokeWidth=1;fillColor=none;align=left;verticalAlign=middle;spacingTop=-1;spacingLeft=3;spacingRight=3;rotatable=0;labelPosition=right;points=[];portConstraint=eastwest;strokeColor=inherit;" vertex="1" parent="8yurtoqpaKrfjurdvBEN-33">
          <mxGeometry y="66" width="240" height="4" as="geometry" />
        </mxCell>
        <mxCell id="8yurtoqpaKrfjurdvBEN-36" value="+&lt;span style=&quot;text-wrap-mode: nowrap;&quot;&gt;&amp;nbsp;fetch(page: Int)&amp;nbsp;-&amp;gt; AnyPublisher&lt;/span&gt;&lt;div&gt;&lt;span style=&quot;text-wrap-mode: nowrap;&quot;&gt;&amp;lt;MovieResponseDTO, MoviesAppError&amp;gt;&lt;/span&gt;&lt;/div&gt;" style="text;strokeColor=none;fillColor=none;align=left;verticalAlign=top;spacingLeft=4;spacingRight=4;overflow=hidden;rotatable=0;points=[[0,0.5],[1,0.5]];portConstraint=eastwest;whiteSpace=wrap;html=1;" vertex="1" parent="8yurtoqpaKrfjurdvBEN-33">
          <mxGeometry y="70" width="240" height="50" as="geometry" />
        </mxCell>
        <mxCell id="8yurtoqpaKrfjurdvBEN-39" value="RemoteMoviesRepositoryImpl" style="swimlane;fontStyle=1;align=center;verticalAlign=top;childLayout=stackLayout;horizontal=1;startSize=26;horizontalStack=0;resizeParent=1;resizeParentMax=0;resizeLast=0;collapsible=1;marginBottom=0;whiteSpace=wrap;html=1;" vertex="1" parent="WIyWlLk6GJQsqaUBKTNV-1">
          <mxGeometry x="-320" y="-760" width="240" height="86" as="geometry" />
        </mxCell>
        <mxCell id="8yurtoqpaKrfjurdvBEN-40" value="- networkProvider" style="text;strokeColor=none;fillColor=none;align=left;verticalAlign=top;spacingLeft=4;spacingRight=4;overflow=hidden;rotatable=0;points=[[0,0.5],[1,0.5]];portConstraint=eastwest;whiteSpace=wrap;html=1;" vertex="1" parent="8yurtoqpaKrfjurdvBEN-39">
          <mxGeometry y="26" width="240" height="26" as="geometry" />
        </mxCell>
        <mxCell id="8yurtoqpaKrfjurdvBEN-41" value="" style="line;strokeWidth=1;fillColor=none;align=left;verticalAlign=middle;spacingTop=-1;spacingLeft=3;spacingRight=3;rotatable=0;labelPosition=right;points=[];portConstraint=eastwest;strokeColor=inherit;" vertex="1" parent="8yurtoqpaKrfjurdvBEN-39">
          <mxGeometry y="52" width="240" height="8" as="geometry" />
        </mxCell>
        <mxCell id="8yurtoqpaKrfjurdvBEN-42" value="&amp;nbsp;" style="text;strokeColor=none;fillColor=none;align=left;verticalAlign=top;spacingLeft=4;spacingRight=4;overflow=hidden;rotatable=0;points=[[0,0.5],[1,0.5]];portConstraint=eastwest;whiteSpace=wrap;html=1;" vertex="1" parent="8yurtoqpaKrfjurdvBEN-39">
          <mxGeometry y="60" width="240" height="26" as="geometry" />
        </mxCell>
        <mxCell id="8yurtoqpaKrfjurdvBEN-43" value="" style="endArrow=block;dashed=1;endFill=0;endSize=12;html=1;rounded=0;exitX=0.495;exitY=0.968;exitDx=0;exitDy=0;exitPerimeter=0;entryX=0.495;entryY=0.968;entryDx=0;entryDy=0;entryPerimeter=0;" edge="1" parent="8yurtoqpaKrfjurdvBEN-39" source="8yurtoqpaKrfjurdvBEN-42">
          <mxGeometry width="160" relative="1" as="geometry">
            <mxPoint x="120" y="90" as="sourcePoint" />
            <mxPoint x="120" y="160" as="targetPoint" />
            <Array as="points">
              <mxPoint x="120" y="120" />
            </Array>
          </mxGeometry>
        </mxCell>
        <mxCell id="8yurtoqpaKrfjurdvBEN-44" value="&amp;lt;&amp;lt;interface&amp;gt;&amp;gt;&lt;br&gt;GenresRepository" style="swimlane;fontStyle=1;align=center;verticalAlign=top;childLayout=stackLayout;horizontal=1;startSize=40;horizontalStack=0;resizeParent=1;resizeParentMax=0;resizeLast=0;collapsible=1;marginBottom=0;whiteSpace=wrap;html=1;" vertex="1" parent="WIyWlLk6GJQsqaUBKTNV-1">
          <mxGeometry x="-720" y="-600" width="240" height="120" as="geometry" />
        </mxCell>
        <mxCell id="8yurtoqpaKrfjurdvBEN-45" value="&amp;nbsp;" style="text;strokeColor=none;fillColor=none;align=left;verticalAlign=top;spacingLeft=4;spacingRight=4;overflow=hidden;rotatable=0;points=[[0,0.5],[1,0.5]];portConstraint=eastwest;whiteSpace=wrap;html=1;" vertex="1" parent="8yurtoqpaKrfjurdvBEN-44">
          <mxGeometry y="40" width="240" height="26" as="geometry" />
        </mxCell>
        <mxCell id="8yurtoqpaKrfjurdvBEN-46" value="" style="line;strokeWidth=1;fillColor=none;align=left;verticalAlign=middle;spacingTop=-1;spacingLeft=3;spacingRight=3;rotatable=0;labelPosition=right;points=[];portConstraint=eastwest;strokeColor=inherit;" vertex="1" parent="8yurtoqpaKrfjurdvBEN-44">
          <mxGeometry y="66" width="240" height="4" as="geometry" />
        </mxCell>
        <mxCell id="8yurtoqpaKrfjurdvBEN-47" value="+&lt;span style=&quot;text-wrap-mode: nowrap;&quot;&gt;&amp;nbsp;fetch()&amp;nbsp;-&amp;gt; AnyPublisher&lt;/span&gt;&lt;div&gt;&lt;span style=&quot;text-wrap-mode: nowrap;&quot;&gt;&amp;lt;GenreResponseDTO, MoviesAppError&amp;gt;&lt;/span&gt;&lt;/div&gt;" style="text;strokeColor=none;fillColor=none;align=left;verticalAlign=top;spacingLeft=4;spacingRight=4;overflow=hidden;rotatable=0;points=[[0,0.5],[1,0.5]];portConstraint=eastwest;whiteSpace=wrap;html=1;" vertex="1" parent="8yurtoqpaKrfjurdvBEN-44">
          <mxGeometry y="70" width="240" height="50" as="geometry" />
        </mxCell>
        <mxCell id="8yurtoqpaKrfjurdvBEN-50" value="RemoteGenresRepositoryImpl" style="swimlane;fontStyle=1;align=center;verticalAlign=top;childLayout=stackLayout;horizontal=1;startSize=26;horizontalStack=0;resizeParent=1;resizeParentMax=0;resizeLast=0;collapsible=1;marginBottom=0;whiteSpace=wrap;html=1;" vertex="1" parent="WIyWlLk6GJQsqaUBKTNV-1">
          <mxGeometry x="-720" y="-760" width="240" height="86" as="geometry" />
        </mxCell>
        <mxCell id="8yurtoqpaKrfjurdvBEN-51" value="- networkProvider" style="text;strokeColor=none;fillColor=none;align=left;verticalAlign=top;spacingLeft=4;spacingRight=4;overflow=hidden;rotatable=0;points=[[0,0.5],[1,0.5]];portConstraint=eastwest;whiteSpace=wrap;html=1;" vertex="1" parent="8yurtoqpaKrfjurdvBEN-50">
          <mxGeometry y="26" width="240" height="26" as="geometry" />
        </mxCell>
        <mxCell id="8yurtoqpaKrfjurdvBEN-52" value="" style="line;strokeWidth=1;fillColor=none;align=left;verticalAlign=middle;spacingTop=-1;spacingLeft=3;spacingRight=3;rotatable=0;labelPosition=right;points=[];portConstraint=eastwest;strokeColor=inherit;" vertex="1" parent="8yurtoqpaKrfjurdvBEN-50">
          <mxGeometry y="52" width="240" height="8" as="geometry" />
        </mxCell>
        <mxCell id="8yurtoqpaKrfjurdvBEN-53" value="&amp;nbsp;" style="text;strokeColor=none;fillColor=none;align=left;verticalAlign=top;spacingLeft=4;spacingRight=4;overflow=hidden;rotatable=0;points=[[0,0.5],[1,0.5]];portConstraint=eastwest;whiteSpace=wrap;html=1;" vertex="1" parent="8yurtoqpaKrfjurdvBEN-50">
          <mxGeometry y="60" width="240" height="26" as="geometry" />
        </mxCell>
        <mxCell id="8yurtoqpaKrfjurdvBEN-54" value="" style="endArrow=block;dashed=1;endFill=0;endSize=12;html=1;rounded=0;exitX=0.5;exitY=1;exitDx=0;exitDy=0;entryX=0.5;entryY=1;entryDx=0;entryDy=0;" edge="1" parent="WIyWlLk6GJQsqaUBKTNV-1" source="8yurtoqpaKrfjurdvBEN-50">
          <mxGeometry width="160" relative="1" as="geometry">
            <mxPoint x="-600" y="-660" as="sourcePoint" />
            <mxPoint x="-600" y="-600" as="targetPoint" />
            <Array as="points">
              <mxPoint x="-600" y="-650" />
            </Array>
          </mxGeometry>
        </mxCell>
        <mxCell id="8yurtoqpaKrfjurdvBEN-56" value="&lt;&lt;enum&gt;&gt;&#xa;MoviesAppError" style="swimlane;fontStyle=0;align=center;verticalAlign=top;childLayout=stackLayout;horizontal=1;startSize=40;horizontalStack=0;resizeParent=1;resizeLast=0;collapsible=1;marginBottom=0;rounded=0;shadow=0;strokeWidth=1;" vertex="1" parent="WIyWlLk6GJQsqaUBKTNV-1">
          <mxGeometry x="-500" y="-400" width="210" height="230" as="geometry">
            <mxRectangle x="550" y="140" width="160" height="26" as="alternateBounds" />
          </mxGeometry>
        </mxCell>
        <mxCell id="8yurtoqpaKrfjurdvBEN-57" value="+ invalidFormat" style="text;align=left;verticalAlign=top;spacingLeft=4;spacingRight=4;overflow=hidden;rotatable=0;points=[[0,0.5],[1,0.5]];portConstraint=eastwest;" vertex="1" parent="8yurtoqpaKrfjurdvBEN-56">
          <mxGeometry y="40" width="210" height="26" as="geometry" />
        </mxCell>
        <mxCell id="8yurtoqpaKrfjurdvBEN-58" value="+ deallocated" style="text;align=left;verticalAlign=top;spacingLeft=4;spacingRight=4;overflow=hidden;rotatable=0;points=[[0,0.5],[1,0.5]];portConstraint=eastwest;rounded=0;shadow=0;html=0;" vertex="1" parent="8yurtoqpaKrfjurdvBEN-56">
          <mxGeometry y="66" width="210" height="26" as="geometry" />
        </mxCell>
        <mxCell id="8yurtoqpaKrfjurdvBEN-65" value="+ networkError(String)" style="text;align=left;verticalAlign=top;spacingLeft=4;spacingRight=4;overflow=hidden;rotatable=0;points=[[0,0.5],[1,0.5]];portConstraint=eastwest;rounded=0;shadow=0;html=0;" vertex="1" parent="8yurtoqpaKrfjurdvBEN-56">
          <mxGeometry y="92" width="210" height="26" as="geometry" />
        </mxCell>
        <mxCell id="8yurtoqpaKrfjurdvBEN-59" value="+ unknown" style="text;align=left;verticalAlign=top;spacingLeft=4;spacingRight=4;overflow=hidden;rotatable=0;points=[[0,0.5],[1,0.5]];portConstraint=eastwest;rounded=0;shadow=0;html=0;" vertex="1" parent="8yurtoqpaKrfjurdvBEN-56">
          <mxGeometry y="118" width="210" height="26" as="geometry" />
        </mxCell>
        <mxCell id="8yurtoqpaKrfjurdvBEN-60" value="" style="line;html=1;strokeWidth=1;align=left;verticalAlign=middle;spacingTop=-1;spacingLeft=3;spacingRight=3;rotatable=0;labelPosition=right;points=[];portConstraint=eastwest;" vertex="1" parent="8yurtoqpaKrfjurdvBEN-56">
          <mxGeometry y="144" width="210" height="8" as="geometry" />
        </mxCell>
        <mxCell id="8yurtoqpaKrfjurdvBEN-61" value="+ localizedDescription(): String" style="text;align=left;verticalAlign=top;spacingLeft=4;spacingRight=4;overflow=hidden;rotatable=0;points=[[0,0.5],[1,0.5]];portConstraint=eastwest;" vertex="1" parent="8yurtoqpaKrfjurdvBEN-56">
          <mxGeometry y="152" width="210" height="26" as="geometry" />
        </mxCell>
        <mxCell id="8yurtoqpaKrfjurdvBEN-62" value="+ itemsToRemove: Int" style="text;strokeColor=none;fillColor=none;align=left;verticalAlign=top;spacingLeft=4;spacingRight=4;overflow=hidden;rotatable=0;points=[[0,0.5],[1,0.5]];portConstraint=eastwest;whiteSpace=wrap;html=1;" vertex="1" parent="8yurtoqpaKrfjurdvBEN-56">
          <mxGeometry y="178" width="210" height="26" as="geometry" />
        </mxCell>
        <mxCell id="8yurtoqpaKrfjurdvBEN-63" value="+ opportunities: Int" style="text;strokeColor=none;fillColor=none;align=left;verticalAlign=top;spacingLeft=4;spacingRight=4;overflow=hidden;rotatable=0;points=[[0,0.5],[1,0.5]];portConstraint=eastwest;whiteSpace=wrap;html=1;" vertex="1" parent="8yurtoqpaKrfjurdvBEN-56">
          <mxGeometry y="204" width="210" height="26" as="geometry" />
        </mxCell>
        <mxCell id="8yurtoqpaKrfjurdvBEN-67" value="" style="endArrow=block;endFill=1;html=1;edgeStyle=orthogonalEdgeStyle;align=left;verticalAlign=top;rounded=0;entryX=0.495;entryY=1.146;entryDx=0;entryDy=0;entryPerimeter=0;exitX=0.491;exitY=1.023;exitDx=0;exitDy=0;exitPerimeter=0;" edge="1" parent="WIyWlLk6GJQsqaUBKTNV-1">
          <mxGeometry x="-0.3332" relative="1" as="geometry">
            <mxPoint x="-602.1599999999999" y="-479.9999999999999" as="sourcePoint" />
            <mxPoint x="-500" y="-287.35400000000016" as="targetPoint" />
            <Array as="points">
              <mxPoint x="-602.17" y="-287" />
            </Array>
            <mxPoint as="offset" />
          </mxGeometry>
        </mxCell>
        <mxCell id="8yurtoqpaKrfjurdvBEN-69" value="" style="endArrow=block;endFill=1;html=1;edgeStyle=orthogonalEdgeStyle;align=left;verticalAlign=top;rounded=0;exitX=0.491;exitY=1.023;exitDx=0;exitDy=0;exitPerimeter=0;" edge="1" parent="WIyWlLk6GJQsqaUBKTNV-1">
          <mxGeometry x="-0.3332" relative="1" as="geometry">
            <mxPoint x="-203.11999999999983" y="-479.9999999999999" as="sourcePoint" />
            <mxPoint x="-289" y="-287" as="targetPoint" />
            <Array as="points">
              <mxPoint x="-203.12999999999994" y="-287" />
            </Array>
            <mxPoint as="offset" />
          </mxGeometry>
        </mxCell>
        <mxCell id="8yurtoqpaKrfjurdvBEN-79" value="&amp;lt;&amp;lt;interface&amp;gt;&amp;gt;&lt;br&gt;FetchMoviesUseCase" style="swimlane;fontStyle=1;align=center;verticalAlign=top;childLayout=stackLayout;horizontal=1;startSize=40;horizontalStack=0;resizeParent=1;resizeParentMax=0;resizeLast=0;collapsible=1;marginBottom=0;whiteSpace=wrap;html=1;" vertex="1" parent="WIyWlLk6GJQsqaUBKTNV-1">
          <mxGeometry x="-520" y="90" width="240" height="120" as="geometry" />
        </mxCell>
        <mxCell id="8yurtoqpaKrfjurdvBEN-80" value="&amp;nbsp;" style="text;strokeColor=none;fillColor=none;align=left;verticalAlign=top;spacingLeft=4;spacingRight=4;overflow=hidden;rotatable=0;points=[[0,0.5],[1,0.5]];portConstraint=eastwest;whiteSpace=wrap;html=1;" vertex="1" parent="8yurtoqpaKrfjurdvBEN-79">
          <mxGeometry y="40" width="240" height="26" as="geometry" />
        </mxCell>
        <mxCell id="8yurtoqpaKrfjurdvBEN-81" value="" style="line;strokeWidth=1;fillColor=none;align=left;verticalAlign=middle;spacingTop=-1;spacingLeft=3;spacingRight=3;rotatable=0;labelPosition=right;points=[];portConstraint=eastwest;strokeColor=inherit;" vertex="1" parent="8yurtoqpaKrfjurdvBEN-79">
          <mxGeometry y="66" width="240" height="8" as="geometry" />
        </mxCell>
        <mxCell id="8yurtoqpaKrfjurdvBEN-82" value="+ execute() -&amp;gt;&amp;nbsp;&lt;span style=&quot;text-wrap-mode: nowrap;&quot;&gt;-&amp;gt; AnyPublisher&lt;/span&gt;&lt;div&gt;&lt;span style=&quot;text-wrap-mode: nowrap;&quot;&gt;&amp;lt;[MoviesModel], MoviesAppError&amp;gt;&lt;/span&gt;&lt;/div&gt;" style="text;strokeColor=none;fillColor=none;align=left;verticalAlign=top;spacingLeft=4;spacingRight=4;overflow=hidden;rotatable=0;points=[[0,0.5],[1,0.5]];portConstraint=eastwest;whiteSpace=wrap;html=1;" vertex="1" parent="8yurtoqpaKrfjurdvBEN-79">
          <mxGeometry y="74" width="240" height="46" as="geometry" />
        </mxCell>
        <mxCell id="8yurtoqpaKrfjurdvBEN-83" value="FetchMoviesUseCaseImpl" style="swimlane;fontStyle=1;align=center;verticalAlign=top;childLayout=stackLayout;horizontal=1;startSize=26;horizontalStack=0;resizeParent=1;resizeParentMax=0;resizeLast=0;collapsible=1;marginBottom=0;whiteSpace=wrap;html=1;" vertex="1" parent="WIyWlLk6GJQsqaUBKTNV-1">
          <mxGeometry x="-505" y="-80" width="220" height="112" as="geometry" />
        </mxCell>
        <mxCell id="8yurtoqpaKrfjurdvBEN-99" value="- moviesRepository" style="text;strokeColor=none;fillColor=none;align=left;verticalAlign=top;spacingLeft=4;spacingRight=4;overflow=hidden;rotatable=0;points=[[0,0.5],[1,0.5]];portConstraint=eastwest;whiteSpace=wrap;html=1;" vertex="1" parent="8yurtoqpaKrfjurdvBEN-83">
          <mxGeometry y="26" width="220" height="26" as="geometry" />
        </mxCell>
        <mxCell id="8yurtoqpaKrfjurdvBEN-84" value="- genresRepository" style="text;strokeColor=none;fillColor=none;align=left;verticalAlign=top;spacingLeft=4;spacingRight=4;overflow=hidden;rotatable=0;points=[[0,0.5],[1,0.5]];portConstraint=eastwest;whiteSpace=wrap;html=1;" vertex="1" parent="8yurtoqpaKrfjurdvBEN-83">
          <mxGeometry y="52" width="220" height="26" as="geometry" />
        </mxCell>
        <mxCell id="8yurtoqpaKrfjurdvBEN-85" value="" style="line;strokeWidth=1;fillColor=none;align=left;verticalAlign=middle;spacingTop=-1;spacingLeft=3;spacingRight=3;rotatable=0;labelPosition=right;points=[];portConstraint=eastwest;strokeColor=inherit;" vertex="1" parent="8yurtoqpaKrfjurdvBEN-83">
          <mxGeometry y="78" width="220" height="8" as="geometry" />
        </mxCell>
        <mxCell id="8yurtoqpaKrfjurdvBEN-86" value="&amp;nbsp;" style="text;strokeColor=none;fillColor=none;align=left;verticalAlign=top;spacingLeft=4;spacingRight=4;overflow=hidden;rotatable=0;points=[[0,0.5],[1,0.5]];portConstraint=eastwest;whiteSpace=wrap;html=1;" vertex="1" parent="8yurtoqpaKrfjurdvBEN-83">
          <mxGeometry y="86" width="220" height="26" as="geometry" />
        </mxCell>
        <mxCell id="8yurtoqpaKrfjurdvBEN-88" value="Use" style="endArrow=open;endSize=12;dashed=1;html=1;rounded=0;entryX=0;entryY=0.5;entryDx=0;entryDy=0;exitX=0;exitY=0.5;exitDx=0;exitDy=0;" edge="1" parent="8yurtoqpaKrfjurdvBEN-83" source="8yurtoqpaKrfjurdvBEN-99">
          <mxGeometry width="160" relative="1" as="geometry">
            <mxPoint x="-5" y="40" as="sourcePoint" />
            <mxPoint x="-135" y="-399" as="targetPoint" />
            <Array as="points">
              <mxPoint x="-135" y="40" />
              <mxPoint x="-135" y="-280" />
              <mxPoint x="-135" y="-350" />
            </Array>
          </mxGeometry>
        </mxCell>
        <mxCell id="8yurtoqpaKrfjurdvBEN-87" value="" style="endArrow=block;dashed=1;endFill=0;endSize=12;html=1;rounded=0;entryX=0.5;entryY=0;entryDx=0;entryDy=0;exitX=0.5;exitY=0;exitDx=0;exitDy=0;" edge="1" parent="WIyWlLk6GJQsqaUBKTNV-1" target="8yurtoqpaKrfjurdvBEN-79">
          <mxGeometry width="160" relative="1" as="geometry">
            <mxPoint x="-400" y="34" as="sourcePoint" />
            <mxPoint x="-615" y="60" as="targetPoint" />
          </mxGeometry>
        </mxCell>
        <mxCell id="8yurtoqpaKrfjurdvBEN-98" value="Use" style="endArrow=open;endSize=12;dashed=1;html=1;rounded=0;exitX=0.666;exitY=1.048;exitDx=0;exitDy=0;exitPerimeter=0;entryX=0.666;entryY=1.048;entryDx=0;entryDy=0;entryPerimeter=0;" edge="1" parent="WIyWlLk6GJQsqaUBKTNV-1" target="8yurtoqpaKrfjurdvBEN-36">
          <mxGeometry width="160" relative="1" as="geometry">
            <mxPoint x="-280" y="-40" as="sourcePoint" />
            <mxPoint x="140" y="-257" as="targetPoint" />
            <Array as="points">
              <mxPoint x="-162" y="-40" />
            </Array>
          </mxGeometry>
        </mxCell>
        <mxCell id="8yurtoqpaKrfjurdvBEN-101" value="MovieModel" style="swimlane;fontStyle=0;align=center;verticalAlign=top;childLayout=stackLayout;horizontal=1;startSize=40;horizontalStack=0;resizeParent=1;resizeLast=0;collapsible=1;marginBottom=0;rounded=0;shadow=0;strokeWidth=1;" vertex="1" parent="WIyWlLk6GJQsqaUBKTNV-1">
          <mxGeometry x="-120" y="47" width="280" height="230" as="geometry">
            <mxRectangle x="550" y="140" width="160" height="26" as="alternateBounds" />
          </mxGeometry>
        </mxCell>
        <mxCell id="8yurtoqpaKrfjurdvBEN-102" value="+ id: Int" style="text;align=left;verticalAlign=top;spacingLeft=4;spacingRight=4;overflow=hidden;rotatable=0;points=[[0,0.5],[1,0.5]];portConstraint=eastwest;" vertex="1" parent="8yurtoqpaKrfjurdvBEN-101">
          <mxGeometry y="40" width="280" height="26" as="geometry" />
        </mxCell>
        <mxCell id="8yurtoqpaKrfjurdvBEN-103" value="+ name: String" style="text;align=left;verticalAlign=top;spacingLeft=4;spacingRight=4;overflow=hidden;rotatable=0;points=[[0,0.5],[1,0.5]];portConstraint=eastwest;rounded=0;shadow=0;html=0;" vertex="1" parent="8yurtoqpaKrfjurdvBEN-101">
          <mxGeometry y="66" width="280" height="26" as="geometry" />
        </mxCell>
        <mxCell id="8yurtoqpaKrfjurdvBEN-104" value="+ overview: String" style="text;strokeColor=none;fillColor=none;align=left;verticalAlign=top;spacingLeft=4;spacingRight=4;overflow=hidden;rotatable=0;points=[[0,0.5],[1,0.5]];portConstraint=eastwest;whiteSpace=wrap;html=1;" vertex="1" parent="8yurtoqpaKrfjurdvBEN-101">
          <mxGeometry y="92" width="280" height="26" as="geometry" />
        </mxCell>
        <mxCell id="8yurtoqpaKrfjurdvBEN-105" value="+ posterURL: URL?" style="text;strokeColor=none;fillColor=none;align=left;verticalAlign=top;spacingLeft=4;spacingRight=4;overflow=hidden;rotatable=0;points=[[0,0.5],[1,0.5]];portConstraint=eastwest;whiteSpace=wrap;html=1;" vertex="1" parent="8yurtoqpaKrfjurdvBEN-101">
          <mxGeometry y="118" width="280" height="26" as="geometry" />
        </mxCell>
        <mxCell id="8yurtoqpaKrfjurdvBEN-115" value="+ releaseDate: Date?" style="text;strokeColor=none;fillColor=none;align=left;verticalAlign=top;spacingLeft=4;spacingRight=4;overflow=hidden;rotatable=0;points=[[0,0.5],[1,0.5]];portConstraint=eastwest;whiteSpace=wrap;html=1;" vertex="1" parent="8yurtoqpaKrfjurdvBEN-101">
          <mxGeometry y="144" width="280" height="26" as="geometry" />
        </mxCell>
        <mxCell id="8yurtoqpaKrfjurdvBEN-116" value="+ genres: [GenreModel]" style="text;strokeColor=none;fillColor=none;align=left;verticalAlign=top;spacingLeft=4;spacingRight=4;overflow=hidden;rotatable=0;points=[[0,0.5],[1,0.5]];portConstraint=eastwest;whiteSpace=wrap;html=1;" vertex="1" parent="8yurtoqpaKrfjurdvBEN-101">
          <mxGeometry y="170" width="280" height="26" as="geometry" />
        </mxCell>
        <mxCell id="8yurtoqpaKrfjurdvBEN-106" value="" style="line;html=1;strokeWidth=1;align=left;verticalAlign=middle;spacingTop=-1;spacingLeft=3;spacingRight=3;rotatable=0;labelPosition=right;points=[];portConstraint=eastwest;" vertex="1" parent="8yurtoqpaKrfjurdvBEN-101">
          <mxGeometry y="196" width="280" height="8" as="geometry" />
        </mxCell>
        <mxCell id="8yurtoqpaKrfjurdvBEN-107" value="&amp;nbsp;" style="text;strokeColor=none;fillColor=none;align=left;verticalAlign=top;spacingLeft=4;spacingRight=4;overflow=hidden;rotatable=0;points=[[0,0.5],[1,0.5]];portConstraint=eastwest;whiteSpace=wrap;html=1;" vertex="1" parent="8yurtoqpaKrfjurdvBEN-101">
          <mxGeometry y="204" width="280" height="26" as="geometry" />
        </mxCell>
        <mxCell id="8yurtoqpaKrfjurdvBEN-117" value="GenreModel" style="swimlane;fontStyle=0;align=center;verticalAlign=top;childLayout=stackLayout;horizontal=1;startSize=40;horizontalStack=0;resizeParent=1;resizeLast=0;collapsible=1;marginBottom=0;rounded=0;shadow=0;strokeWidth=1;" vertex="1" parent="WIyWlLk6GJQsqaUBKTNV-1">
          <mxGeometry x="320" y="47" width="280" height="145" as="geometry">
            <mxRectangle x="550" y="140" width="160" height="26" as="alternateBounds" />
          </mxGeometry>
        </mxCell>
        <mxCell id="8yurtoqpaKrfjurdvBEN-118" value="+ id: Int" style="text;align=left;verticalAlign=top;spacingLeft=4;spacingRight=4;overflow=hidden;rotatable=0;points=[[0,0.5],[1,0.5]];portConstraint=eastwest;" vertex="1" parent="8yurtoqpaKrfjurdvBEN-117">
          <mxGeometry y="40" width="280" height="26" as="geometry" />
        </mxCell>
        <mxCell id="8yurtoqpaKrfjurdvBEN-119" value="+ name: String" style="text;align=left;verticalAlign=top;spacingLeft=4;spacingRight=4;overflow=hidden;rotatable=0;points=[[0,0.5],[1,0.5]];portConstraint=eastwest;rounded=0;shadow=0;html=0;" vertex="1" parent="8yurtoqpaKrfjurdvBEN-117">
          <mxGeometry y="66" width="280" height="26" as="geometry" />
        </mxCell>
        <mxCell id="8yurtoqpaKrfjurdvBEN-124" value="" style="line;html=1;strokeWidth=1;align=left;verticalAlign=middle;spacingTop=-1;spacingLeft=3;spacingRight=3;rotatable=0;labelPosition=right;points=[];portConstraint=eastwest;" vertex="1" parent="8yurtoqpaKrfjurdvBEN-117">
          <mxGeometry y="92" width="280" height="8" as="geometry" />
        </mxCell>
        <mxCell id="8yurtoqpaKrfjurdvBEN-125" value="&amp;nbsp;" style="text;strokeColor=none;fillColor=none;align=left;verticalAlign=top;spacingLeft=4;spacingRight=4;overflow=hidden;rotatable=0;points=[[0,0.5],[1,0.5]];portConstraint=eastwest;whiteSpace=wrap;html=1;" vertex="1" parent="8yurtoqpaKrfjurdvBEN-117">
          <mxGeometry y="100" width="280" height="26" as="geometry" />
        </mxCell>
        <mxCell id="8yurtoqpaKrfjurdvBEN-128" value="" style="endArrow=block;endFill=1;html=1;edgeStyle=orthogonalEdgeStyle;align=left;verticalAlign=top;rounded=0;entryX=0;entryY=0.269;entryDx=0;entryDy=0;entryPerimeter=0;" edge="1" parent="WIyWlLk6GJQsqaUBKTNV-1" target="8yurtoqpaKrfjurdvBEN-103">
          <mxGeometry x="-0.3332" relative="1" as="geometry">
            <mxPoint x="-280" y="119.28999999999999" as="sourcePoint" />
            <mxPoint x="-170" y="119.28999999999999" as="targetPoint" />
            <Array as="points">
              <mxPoint x="-190" y="119" />
            </Array>
            <mxPoint as="offset" />
          </mxGeometry>
        </mxCell>
        <mxCell id="8yurtoqpaKrfjurdvBEN-129" value="" style="endArrow=open;html=1;endSize=12;startArrow=diamondThin;startSize=14;startFill=1;edgeStyle=orthogonalEdgeStyle;align=left;verticalAlign=bottom;rounded=0;" edge="1" parent="WIyWlLk6GJQsqaUBKTNV-1">
          <mxGeometry x="-1" y="3" relative="1" as="geometry">
            <mxPoint x="160" y="119.13999999999999" as="sourcePoint" />
            <mxPoint x="320" y="119.13999999999999" as="targetPoint" />
          </mxGeometry>
        </mxCell>
        <mxCell id="8yurtoqpaKrfjurdvBEN-130" value="&amp;lt;&amp;lt;interface&amp;gt;&amp;gt;&lt;br&gt;MovieListViewModel" style="swimlane;fontStyle=1;align=center;verticalAlign=top;childLayout=stackLayout;horizontal=1;startSize=46;horizontalStack=0;resizeParent=1;resizeParentMax=0;resizeLast=0;collapsible=1;marginBottom=0;whiteSpace=wrap;html=1;" vertex="1" parent="WIyWlLk6GJQsqaUBKTNV-1">
          <mxGeometry x="-520" y="569" width="250" height="106" as="geometry" />
        </mxCell>
        <mxCell id="8yurtoqpaKrfjurdvBEN-132" value="+ state: MoviesListViewState" style="text;strokeColor=none;fillColor=none;align=left;verticalAlign=top;spacingLeft=4;spacingRight=4;overflow=hidden;rotatable=0;points=[[0,0.5],[1,0.5]];portConstraint=eastwest;whiteSpace=wrap;html=1;" vertex="1" parent="8yurtoqpaKrfjurdvBEN-130">
          <mxGeometry y="46" width="250" height="26" as="geometry" />
        </mxCell>
        <mxCell id="8yurtoqpaKrfjurdvBEN-133" value="" style="line;strokeWidth=1;fillColor=none;align=left;verticalAlign=middle;spacingTop=-1;spacingLeft=3;spacingRight=3;rotatable=0;labelPosition=right;points=[];portConstraint=eastwest;strokeColor=inherit;" vertex="1" parent="8yurtoqpaKrfjurdvBEN-130">
          <mxGeometry y="72" width="250" height="8" as="geometry" />
        </mxCell>
        <mxCell id="8yurtoqpaKrfjurdvBEN-134" value="+ loadItems():Void" style="text;strokeColor=none;fillColor=none;align=left;verticalAlign=top;spacingLeft=4;spacingRight=4;overflow=hidden;rotatable=0;points=[[0,0.5],[1,0.5]];portConstraint=eastwest;whiteSpace=wrap;html=1;" vertex="1" parent="8yurtoqpaKrfjurdvBEN-130">
          <mxGeometry y="80" width="250" height="26" as="geometry" />
        </mxCell>
        <mxCell id="8yurtoqpaKrfjurdvBEN-135" value="&amp;lt;&amp;lt;enum&amp;gt;&amp;gt;&lt;br&gt;MoviesListViewState" style="swimlane;fontStyle=1;align=center;verticalAlign=top;childLayout=stackLayout;horizontal=1;startSize=40;horizontalStack=0;resizeParent=1;resizeParentMax=0;resizeLast=0;collapsible=1;marginBottom=0;whiteSpace=wrap;html=1;" vertex="1" parent="WIyWlLk6GJQsqaUBKTNV-1">
          <mxGeometry x="-1040" y="546" width="300" height="200" as="geometry" />
        </mxCell>
        <mxCell id="8yurtoqpaKrfjurdvBEN-136" value="+ empty" style="text;strokeColor=none;fillColor=none;align=left;verticalAlign=top;spacingLeft=4;spacingRight=4;overflow=hidden;rotatable=0;points=[[0,0.5],[1,0.5]];portConstraint=eastwest;whiteSpace=wrap;html=1;" vertex="1" parent="8yurtoqpaKrfjurdvBEN-135">
          <mxGeometry y="40" width="300" height="26" as="geometry" />
        </mxCell>
        <mxCell id="8yurtoqpaKrfjurdvBEN-137" value="+ loading" style="text;strokeColor=none;fillColor=none;align=left;verticalAlign=top;spacingLeft=4;spacingRight=4;overflow=hidden;rotatable=0;points=[[0,0.5],[1,0.5]];portConstraint=eastwest;whiteSpace=wrap;html=1;" vertex="1" parent="8yurtoqpaKrfjurdvBEN-135">
          <mxGeometry y="66" width="300" height="26" as="geometry" />
        </mxCell>
        <mxCell id="8yurtoqpaKrfjurdvBEN-138" value="+ hasContent(items: [&lt;span style=&quot;font-weight: 700; text-align: center;&quot;&gt;BoardItemViewModel&lt;/span&gt;],&amp;nbsp;&lt;div&gt;isLoading: Bool)&lt;/div&gt;" style="text;strokeColor=none;fillColor=none;align=left;verticalAlign=top;spacingLeft=4;spacingRight=4;overflow=hidden;rotatable=0;points=[[0,0.5],[1,0.5]];portConstraint=eastwest;whiteSpace=wrap;html=1;" vertex="1" parent="8yurtoqpaKrfjurdvBEN-135">
          <mxGeometry y="92" width="300" height="48" as="geometry" />
        </mxCell>
        <mxCell id="8yurtoqpaKrfjurdvBEN-139" value="+ error(String)" style="text;strokeColor=none;fillColor=none;align=left;verticalAlign=top;spacingLeft=4;spacingRight=4;overflow=hidden;rotatable=0;points=[[0,0.5],[1,0.5]];portConstraint=eastwest;whiteSpace=wrap;html=1;" vertex="1" parent="8yurtoqpaKrfjurdvBEN-135">
          <mxGeometry y="140" width="300" height="26" as="geometry" />
        </mxCell>
        <mxCell id="8yurtoqpaKrfjurdvBEN-140" value="" style="line;strokeWidth=1;fillColor=none;align=left;verticalAlign=middle;spacingTop=-1;spacingLeft=3;spacingRight=3;rotatable=0;labelPosition=right;points=[];portConstraint=eastwest;strokeColor=inherit;" vertex="1" parent="8yurtoqpaKrfjurdvBEN-135">
          <mxGeometry y="166" width="300" height="8" as="geometry" />
        </mxCell>
        <mxCell id="8yurtoqpaKrfjurdvBEN-141" value="&amp;nbsp;" style="text;strokeColor=none;fillColor=none;align=left;verticalAlign=top;spacingLeft=4;spacingRight=4;overflow=hidden;rotatable=0;points=[[0,0.5],[1,0.5]];portConstraint=eastwest;whiteSpace=wrap;html=1;" vertex="1" parent="8yurtoqpaKrfjurdvBEN-135">
          <mxGeometry y="174" width="300" height="26" as="geometry" />
        </mxCell>
        <mxCell id="8yurtoqpaKrfjurdvBEN-142" value="MoviesListViewModelImpl" style="swimlane;fontStyle=1;align=center;verticalAlign=top;childLayout=stackLayout;horizontal=1;startSize=26;horizontalStack=0;resizeParent=1;resizeParentMax=0;resizeLast=0;collapsible=1;marginBottom=0;whiteSpace=wrap;html=1;" vertex="1" parent="WIyWlLk6GJQsqaUBKTNV-1">
          <mxGeometry x="-575" y="320" width="360" height="116" as="geometry" />
        </mxCell>
        <mxCell id="8yurtoqpaKrfjurdvBEN-143" value="- itemViewModelFactory: MovieItemViewModelFactory" style="text;strokeColor=none;fillColor=none;align=left;verticalAlign=top;spacingLeft=4;spacingRight=4;overflow=hidden;rotatable=0;points=[[0,0.5],[1,0.5]];portConstraint=eastwest;whiteSpace=wrap;html=1;" vertex="1" parent="8yurtoqpaKrfjurdvBEN-142">
          <mxGeometry y="26" width="360" height="26" as="geometry" />
        </mxCell>
        <mxCell id="8yurtoqpaKrfjurdvBEN-144" value="- fetchMoviesUseCase:SuscribeToBoardUseCase" style="text;strokeColor=none;fillColor=none;align=left;verticalAlign=top;spacingLeft=4;spacingRight=4;overflow=hidden;rotatable=0;points=[[0,0.5],[1,0.5]];portConstraint=eastwest;whiteSpace=wrap;html=1;" vertex="1" parent="8yurtoqpaKrfjurdvBEN-142">
          <mxGeometry y="52" width="360" height="26" as="geometry" />
        </mxCell>
        <mxCell id="8yurtoqpaKrfjurdvBEN-147" value="" style="line;strokeWidth=1;fillColor=none;align=left;verticalAlign=middle;spacingTop=-1;spacingLeft=3;spacingRight=3;rotatable=0;labelPosition=right;points=[];portConstraint=eastwest;strokeColor=inherit;" vertex="1" parent="8yurtoqpaKrfjurdvBEN-142">
          <mxGeometry y="78" width="360" height="8" as="geometry" />
        </mxCell>
        <mxCell id="8yurtoqpaKrfjurdvBEN-148" value="&amp;nbsp;" style="text;strokeColor=none;fillColor=none;align=left;verticalAlign=top;spacingLeft=4;spacingRight=4;overflow=hidden;rotatable=0;points=[[0,0.5],[1,0.5]];portConstraint=eastwest;whiteSpace=wrap;html=1;" vertex="1" parent="8yurtoqpaKrfjurdvBEN-142">
          <mxGeometry y="86" width="360" height="30" as="geometry" />
        </mxCell>
        <mxCell id="8yurtoqpaKrfjurdvBEN-149" value="" style="endArrow=block;dashed=1;endFill=0;endSize=12;html=1;rounded=0;entryX=0.5;entryY=0;entryDx=0;entryDy=0;" edge="1" parent="WIyWlLk6GJQsqaUBKTNV-1">
          <mxGeometry width="160" relative="1" as="geometry">
            <mxPoint x="-402" y="440" as="sourcePoint" />
            <mxPoint x="-399.88" y="569" as="targetPoint" />
          </mxGeometry>
        </mxCell>
        <mxCell id="8yurtoqpaKrfjurdvBEN-150" value="" style="endArrow=diamondThin;endFill=0;endSize=24;html=1;rounded=0;" edge="1" parent="WIyWlLk6GJQsqaUBKTNV-1">
          <mxGeometry width="160" relative="1" as="geometry">
            <mxPoint x="-740" y="634.5" as="sourcePoint" />
            <mxPoint x="-520" y="634.5" as="targetPoint" />
          </mxGeometry>
        </mxCell>
        <mxCell id="8yurtoqpaKrfjurdvBEN-151" value="" style="endArrow=diamondThin;endFill=1;endSize=24;html=1;rounded=0;entryX=0.708;entryY=1;entryDx=0;entryDy=0;entryPerimeter=0;exitX=0.5;exitY=0;exitDx=0;exitDy=0;" edge="1" parent="WIyWlLk6GJQsqaUBKTNV-1" source="8yurtoqpaKrfjurdvBEN-152">
          <mxGeometry width="160" relative="1" as="geometry">
            <mxPoint x="-401" y="810" as="sourcePoint" />
            <mxPoint x="-400.56" y="675.0000000000005" as="targetPoint" />
            <Array as="points">
              <mxPoint x="-400.56" y="760" />
            </Array>
          </mxGeometry>
        </mxCell>
        <mxCell id="8yurtoqpaKrfjurdvBEN-152" value="&amp;lt;&amp;lt;interface&amp;gt;&amp;gt;&lt;br&gt;MovieItemViewModel" style="swimlane;fontStyle=1;align=center;verticalAlign=top;childLayout=stackLayout;horizontal=1;startSize=40;horizontalStack=0;resizeParent=1;resizeParentMax=0;resizeLast=0;collapsible=1;marginBottom=0;whiteSpace=wrap;html=1;" vertex="1" parent="WIyWlLk6GJQsqaUBKTNV-1">
          <mxGeometry x="-552.5" y="820" width="305" height="230" as="geometry" />
        </mxCell>
        <mxCell id="8yurtoqpaKrfjurdvBEN-154" value="+ id: String" style="text;strokeColor=none;fillColor=none;align=left;verticalAlign=top;spacingLeft=4;spacingRight=4;overflow=hidden;rotatable=0;points=[[0,0.5],[1,0.5]];portConstraint=eastwest;whiteSpace=wrap;html=1;" vertex="1" parent="8yurtoqpaKrfjurdvBEN-152">
          <mxGeometry y="40" width="305" height="26" as="geometry" />
        </mxCell>
        <mxCell id="8yurtoqpaKrfjurdvBEN-155" value="+ name: String" style="text;strokeColor=none;fillColor=none;align=left;verticalAlign=top;spacingLeft=4;spacingRight=4;overflow=hidden;rotatable=0;points=[[0,0.5],[1,0.5]];portConstraint=eastwest;whiteSpace=wrap;html=1;" vertex="1" parent="8yurtoqpaKrfjurdvBEN-152">
          <mxGeometry y="66" width="305" height="26" as="geometry" />
        </mxCell>
        <mxCell id="8yurtoqpaKrfjurdvBEN-192" value="+ url: URL?" style="text;strokeColor=none;fillColor=none;align=left;verticalAlign=top;spacingLeft=4;spacingRight=4;overflow=hidden;rotatable=0;points=[[0,0.5],[1,0.5]];portConstraint=eastwest;whiteSpace=wrap;html=1;" vertex="1" parent="8yurtoqpaKrfjurdvBEN-152">
          <mxGeometry y="92" width="305" height="26" as="geometry" />
        </mxCell>
        <mxCell id="8yurtoqpaKrfjurdvBEN-191" value="+ genres: [String]" style="text;strokeColor=none;fillColor=none;align=left;verticalAlign=top;spacingLeft=4;spacingRight=4;overflow=hidden;rotatable=0;points=[[0,0.5],[1,0.5]];portConstraint=eastwest;whiteSpace=wrap;html=1;" vertex="1" parent="8yurtoqpaKrfjurdvBEN-152">
          <mxGeometry y="118" width="305" height="26" as="geometry" />
        </mxCell>
        <mxCell id="8yurtoqpaKrfjurdvBEN-193" value="+ overview: String" style="text;strokeColor=none;fillColor=none;align=left;verticalAlign=top;spacingLeft=4;spacingRight=4;overflow=hidden;rotatable=0;points=[[0,0.5],[1,0.5]];portConstraint=eastwest;whiteSpace=wrap;html=1;" vertex="1" parent="8yurtoqpaKrfjurdvBEN-152">
          <mxGeometry y="144" width="305" height="26" as="geometry" />
        </mxCell>
        <mxCell id="8yurtoqpaKrfjurdvBEN-194" value="+ date: String" style="text;strokeColor=none;fillColor=none;align=left;verticalAlign=top;spacingLeft=4;spacingRight=4;overflow=hidden;rotatable=0;points=[[0,0.5],[1,0.5]];portConstraint=eastwest;whiteSpace=wrap;html=1;" vertex="1" parent="8yurtoqpaKrfjurdvBEN-152">
          <mxGeometry y="170" width="305" height="26" as="geometry" />
        </mxCell>
        <mxCell id="8yurtoqpaKrfjurdvBEN-156" value="" style="line;strokeWidth=1;fillColor=none;align=left;verticalAlign=middle;spacingTop=-1;spacingLeft=3;spacingRight=3;rotatable=0;labelPosition=right;points=[];portConstraint=eastwest;strokeColor=inherit;" vertex="1" parent="8yurtoqpaKrfjurdvBEN-152">
          <mxGeometry y="196" width="305" height="8" as="geometry" />
        </mxCell>
        <mxCell id="8yurtoqpaKrfjurdvBEN-157" value="&amp;nbsp;" style="text;strokeColor=none;fillColor=none;align=left;verticalAlign=top;spacingLeft=4;spacingRight=4;overflow=hidden;rotatable=0;points=[[0,0.5],[1,0.5]];portConstraint=eastwest;whiteSpace=wrap;html=1;" vertex="1" parent="8yurtoqpaKrfjurdvBEN-152">
          <mxGeometry y="204" width="305" height="26" as="geometry" />
        </mxCell>
        <mxCell id="8yurtoqpaKrfjurdvBEN-158" value="MoviesListView" style="swimlane;fontStyle=1;align=center;verticalAlign=top;childLayout=stackLayout;horizontal=1;startSize=26;horizontalStack=0;resizeParent=1;resizeParentMax=0;resizeLast=0;collapsible=1;marginBottom=0;whiteSpace=wrap;html=1;" vertex="1" parent="WIyWlLk6GJQsqaUBKTNV-1">
          <mxGeometry x="-760" y="1169" width="160" height="86" as="geometry" />
        </mxCell>
        <mxCell id="8yurtoqpaKrfjurdvBEN-159" value="&amp;nbsp;" style="text;strokeColor=none;fillColor=none;align=left;verticalAlign=top;spacingLeft=4;spacingRight=4;overflow=hidden;rotatable=0;points=[[0,0.5],[1,0.5]];portConstraint=eastwest;whiteSpace=wrap;html=1;" vertex="1" parent="8yurtoqpaKrfjurdvBEN-158">
          <mxGeometry y="26" width="160" height="26" as="geometry" />
        </mxCell>
        <mxCell id="8yurtoqpaKrfjurdvBEN-160" value="" style="line;strokeWidth=1;fillColor=none;align=left;verticalAlign=middle;spacingTop=-1;spacingLeft=3;spacingRight=3;rotatable=0;labelPosition=right;points=[];portConstraint=eastwest;strokeColor=inherit;" vertex="1" parent="8yurtoqpaKrfjurdvBEN-158">
          <mxGeometry y="52" width="160" height="8" as="geometry" />
        </mxCell>
        <mxCell id="8yurtoqpaKrfjurdvBEN-161" value="&amp;nbsp;" style="text;strokeColor=none;fillColor=none;align=left;verticalAlign=top;spacingLeft=4;spacingRight=4;overflow=hidden;rotatable=0;points=[[0,0.5],[1,0.5]];portConstraint=eastwest;whiteSpace=wrap;html=1;" vertex="1" parent="8yurtoqpaKrfjurdvBEN-158">
          <mxGeometry y="60" width="160" height="26" as="geometry" />
        </mxCell>
        <mxCell id="8yurtoqpaKrfjurdvBEN-162" value="BoardItemView" style="swimlane;fontStyle=1;align=center;verticalAlign=top;childLayout=stackLayout;horizontal=1;startSize=26;horizontalStack=0;resizeParent=1;resizeParentMax=0;resizeLast=0;collapsible=1;marginBottom=0;whiteSpace=wrap;html=1;" vertex="1" parent="WIyWlLk6GJQsqaUBKTNV-1">
          <mxGeometry x="-520" y="1169" width="240" height="86" as="geometry" />
        </mxCell>
        <mxCell id="8yurtoqpaKrfjurdvBEN-163" value="&amp;nbsp;" style="text;strokeColor=none;fillColor=none;align=left;verticalAlign=top;spacingLeft=4;spacingRight=4;overflow=hidden;rotatable=0;points=[[0,0.5],[1,0.5]];portConstraint=eastwest;whiteSpace=wrap;html=1;" vertex="1" parent="8yurtoqpaKrfjurdvBEN-162">
          <mxGeometry y="26" width="240" height="26" as="geometry" />
        </mxCell>
        <mxCell id="8yurtoqpaKrfjurdvBEN-164" value="" style="line;strokeWidth=1;fillColor=none;align=left;verticalAlign=middle;spacingTop=-1;spacingLeft=3;spacingRight=3;rotatable=0;labelPosition=right;points=[];portConstraint=eastwest;strokeColor=inherit;" vertex="1" parent="8yurtoqpaKrfjurdvBEN-162">
          <mxGeometry y="52" width="240" height="8" as="geometry" />
        </mxCell>
        <mxCell id="8yurtoqpaKrfjurdvBEN-165" value="&amp;nbsp;" style="text;strokeColor=none;fillColor=none;align=left;verticalAlign=top;spacingLeft=4;spacingRight=4;overflow=hidden;rotatable=0;points=[[0,0.5],[1,0.5]];portConstraint=eastwest;whiteSpace=wrap;html=1;" vertex="1" parent="8yurtoqpaKrfjurdvBEN-162">
          <mxGeometry y="60" width="240" height="26" as="geometry" />
        </mxCell>
        <mxCell id="8yurtoqpaKrfjurdvBEN-166" value="" style="endArrow=diamondThin;endFill=1;endSize=24;html=1;rounded=0;entryX=0.45;entryY=1;entryDx=0;entryDy=0;entryPerimeter=0;" edge="1" parent="WIyWlLk6GJQsqaUBKTNV-1" target="8yurtoqpaKrfjurdvBEN-161">
          <mxGeometry width="160" relative="1" as="geometry">
            <mxPoint x="-400" y="1260" as="sourcePoint" />
            <mxPoint x="-230.82999999999993" y="1316" as="targetPoint" />
            <Array as="points">
              <mxPoint x="-400" y="1290" />
              <mxPoint x="-400" y="1320" />
              <mxPoint x="-688" y="1320" />
            </Array>
          </mxGeometry>
        </mxCell>
        <mxCell id="8yurtoqpaKrfjurdvBEN-167" value="Use" style="endArrow=open;endSize=12;dashed=1;html=1;rounded=0;entryX=0.158;entryY=1.02;entryDx=0;entryDy=0;exitX=0.5;exitY=0;exitDx=0;exitDy=0;entryPerimeter=0;" edge="1" parent="WIyWlLk6GJQsqaUBKTNV-1" source="8yurtoqpaKrfjurdvBEN-158" target="8yurtoqpaKrfjurdvBEN-134">
          <mxGeometry x="-0.1088" width="160" relative="1" as="geometry">
            <mxPoint x="-309.99999999999955" y="1270" as="sourcePoint" />
            <mxPoint x="-520" y="700" as="targetPoint" />
            <Array as="points">
              <mxPoint x="-680" y="720" />
              <mxPoint x="-480" y="720" />
            </Array>
            <mxPoint as="offset" />
          </mxGeometry>
        </mxCell>
        <mxCell id="8yurtoqpaKrfjurdvBEN-168" value="MovieItemViewModelImpl" style="swimlane;fontStyle=1;align=center;verticalAlign=top;childLayout=stackLayout;horizontal=1;startSize=26;horizontalStack=0;resizeParent=1;resizeParentMax=0;resizeLast=0;collapsible=1;marginBottom=0;whiteSpace=wrap;html=1;" vertex="1" parent="WIyWlLk6GJQsqaUBKTNV-1">
          <mxGeometry x="-132.5" y="780" width="305" height="86" as="geometry" />
        </mxCell>
        <mxCell id="8yurtoqpaKrfjurdvBEN-169" value="&amp;nbsp;" style="text;strokeColor=none;fillColor=none;align=left;verticalAlign=top;spacingLeft=4;spacingRight=4;overflow=hidden;rotatable=0;points=[[0,0.5],[1,0.5]];portConstraint=eastwest;whiteSpace=wrap;html=1;" vertex="1" parent="8yurtoqpaKrfjurdvBEN-168">
          <mxGeometry y="26" width="305" height="26" as="geometry" />
        </mxCell>
        <mxCell id="8yurtoqpaKrfjurdvBEN-171" value="" style="line;strokeWidth=1;fillColor=none;align=left;verticalAlign=middle;spacingTop=-1;spacingLeft=3;spacingRight=3;rotatable=0;labelPosition=right;points=[];portConstraint=eastwest;strokeColor=inherit;" vertex="1" parent="8yurtoqpaKrfjurdvBEN-168">
          <mxGeometry y="52" width="305" height="8" as="geometry" />
        </mxCell>
        <mxCell id="8yurtoqpaKrfjurdvBEN-172" value="&amp;nbsp;" style="text;strokeColor=none;fillColor=none;align=left;verticalAlign=top;spacingLeft=4;spacingRight=4;overflow=hidden;rotatable=0;points=[[0,0.5],[1,0.5]];portConstraint=eastwest;whiteSpace=wrap;html=1;" vertex="1" parent="8yurtoqpaKrfjurdvBEN-168">
          <mxGeometry y="60" width="305" height="26" as="geometry" />
        </mxCell>
        <mxCell id="8yurtoqpaKrfjurdvBEN-153" value="" style="endArrow=block;dashed=1;endFill=0;endSize=12;html=1;rounded=0;exitX=0.475;exitY=1.038;exitDx=0;exitDy=0;exitPerimeter=0;" edge="1" parent="8yurtoqpaKrfjurdvBEN-168" source="8yurtoqpaKrfjurdvBEN-172">
          <mxGeometry width="160" relative="1" as="geometry">
            <mxPoint x="-762.5" y="80" as="sourcePoint" />
            <mxPoint x="-107.5" y="160" as="targetPoint" />
            <Array as="points">
              <mxPoint x="144.5" y="160" />
            </Array>
          </mxGeometry>
        </mxCell>
        <mxCell id="8yurtoqpaKrfjurdvBEN-173" value="Use" style="endArrow=open;endSize=12;dashed=1;html=1;rounded=0;" edge="1" parent="WIyWlLk6GJQsqaUBKTNV-1">
          <mxGeometry x="-0.0741" width="160" relative="1" as="geometry">
            <mxPoint x="-400" y="318" as="sourcePoint" />
            <mxPoint x="-400" y="210" as="targetPoint" />
            <mxPoint as="offset" />
            <Array as="points">
              <mxPoint x="-400" y="270" />
            </Array>
          </mxGeometry>
        </mxCell>
        <mxCell id="8yurtoqpaKrfjurdvBEN-178" value="&amp;lt;&amp;lt;interface&amp;gt;&amp;gt;&lt;br&gt;MovieItemViewModelFactory" style="swimlane;fontStyle=1;align=center;verticalAlign=top;childLayout=stackLayout;horizontal=1;startSize=40;horizontalStack=0;resizeParent=1;resizeParentMax=0;resizeLast=0;collapsible=1;marginBottom=0;whiteSpace=wrap;html=1;" vertex="1" parent="WIyWlLk6GJQsqaUBKTNV-1">
          <mxGeometry x="-120" y="400" width="280" height="120" as="geometry" />
        </mxCell>
        <mxCell id="8yurtoqpaKrfjurdvBEN-179" value="&amp;nbsp;" style="text;strokeColor=none;fillColor=none;align=left;verticalAlign=top;spacingLeft=4;spacingRight=4;overflow=hidden;rotatable=0;points=[[0,0.5],[1,0.5]];portConstraint=eastwest;whiteSpace=wrap;html=1;" vertex="1" parent="8yurtoqpaKrfjurdvBEN-178">
          <mxGeometry y="40" width="280" height="26" as="geometry" />
        </mxCell>
        <mxCell id="8yurtoqpaKrfjurdvBEN-180" value="" style="line;strokeWidth=1;fillColor=none;align=left;verticalAlign=middle;spacingTop=-1;spacingLeft=3;spacingRight=3;rotatable=0;labelPosition=right;points=[];portConstraint=eastwest;strokeColor=inherit;" vertex="1" parent="8yurtoqpaKrfjurdvBEN-178">
          <mxGeometry y="66" width="280" height="4" as="geometry" />
        </mxCell>
        <mxCell id="8yurtoqpaKrfjurdvBEN-181" value="+&lt;span style=&quot;text-wrap-mode: nowrap;&quot;&gt;&amp;nbsp;create(model: MovieModel)&amp;nbsp;&lt;/span&gt;&lt;div&gt;&lt;span style=&quot;text-wrap-mode: nowrap;&quot;&gt;-&amp;gt; MovieItemViewModel&lt;br&gt;&lt;/span&gt;&lt;/div&gt;" style="text;strokeColor=none;fillColor=none;align=left;verticalAlign=top;spacingLeft=4;spacingRight=4;overflow=hidden;rotatable=0;points=[[0,0.5],[1,0.5]];portConstraint=eastwest;whiteSpace=wrap;html=1;" vertex="1" parent="8yurtoqpaKrfjurdvBEN-178">
          <mxGeometry y="70" width="280" height="50" as="geometry" />
        </mxCell>
        <mxCell id="8yurtoqpaKrfjurdvBEN-182" value="MovieItemViewModelFactoryImpl" style="swimlane;fontStyle=1;align=center;verticalAlign=top;childLayout=stackLayout;horizontal=1;startSize=26;horizontalStack=0;resizeParent=1;resizeParentMax=0;resizeLast=0;collapsible=1;marginBottom=0;whiteSpace=wrap;html=1;" vertex="1" parent="WIyWlLk6GJQsqaUBKTNV-1">
          <mxGeometry x="-120" y="650" width="280" height="86" as="geometry" />
        </mxCell>
        <mxCell id="8yurtoqpaKrfjurdvBEN-183" value="- locale" style="text;strokeColor=none;fillColor=none;align=left;verticalAlign=top;spacingLeft=4;spacingRight=4;overflow=hidden;rotatable=0;points=[[0,0.5],[1,0.5]];portConstraint=eastwest;whiteSpace=wrap;html=1;" vertex="1" parent="8yurtoqpaKrfjurdvBEN-182">
          <mxGeometry y="26" width="280" height="26" as="geometry" />
        </mxCell>
        <mxCell id="8yurtoqpaKrfjurdvBEN-184" value="" style="line;strokeWidth=1;fillColor=none;align=left;verticalAlign=middle;spacingTop=-1;spacingLeft=3;spacingRight=3;rotatable=0;labelPosition=right;points=[];portConstraint=eastwest;strokeColor=inherit;" vertex="1" parent="8yurtoqpaKrfjurdvBEN-182">
          <mxGeometry y="52" width="280" height="8" as="geometry" />
        </mxCell>
        <mxCell id="8yurtoqpaKrfjurdvBEN-185" value="&amp;nbsp;" style="text;strokeColor=none;fillColor=none;align=left;verticalAlign=top;spacingLeft=4;spacingRight=4;overflow=hidden;rotatable=0;points=[[0,0.5],[1,0.5]];portConstraint=eastwest;whiteSpace=wrap;html=1;" vertex="1" parent="8yurtoqpaKrfjurdvBEN-182">
          <mxGeometry y="60" width="280" height="26" as="geometry" />
        </mxCell>
        <mxCell id="8yurtoqpaKrfjurdvBEN-186" value="" style="endArrow=block;dashed=1;endFill=0;endSize=12;html=1;rounded=0;exitX=0.5;exitY=0;exitDx=0;exitDy=0;" edge="1" parent="WIyWlLk6GJQsqaUBKTNV-1" source="8yurtoqpaKrfjurdvBEN-182">
          <mxGeometry width="160" relative="1" as="geometry">
            <mxPoint x="19.33" y="610" as="sourcePoint" />
            <mxPoint x="19.33" y="520" as="targetPoint" />
            <Array as="points">
              <mxPoint x="19.33" y="520" />
            </Array>
          </mxGeometry>
        </mxCell>
        <mxCell id="8yurtoqpaKrfjurdvBEN-188" value="Use" style="endArrow=open;endSize=12;dashed=1;html=1;rounded=0;exitX=0.5;exitY=0;exitDx=0;exitDy=0;" edge="1" parent="WIyWlLk6GJQsqaUBKTNV-1" source="8yurtoqpaKrfjurdvBEN-178">
          <mxGeometry x="-0.0741" width="160" relative="1" as="geometry">
            <mxPoint x="19.379999999999995" y="388" as="sourcePoint" />
            <mxPoint x="19.379999999999995" y="280" as="targetPoint" />
            <mxPoint as="offset" />
            <Array as="points">
              <mxPoint x="19.379999999999995" y="340" />
            </Array>
          </mxGeometry>
        </mxCell>
        <mxCell id="8yurtoqpaKrfjurdvBEN-190" value="Use" style="endArrow=open;endSize=12;dashed=1;html=1;rounded=0;exitX=1;exitY=0.5;exitDx=0;exitDy=0;entryX=-0.008;entryY=-0.038;entryDx=0;entryDy=0;entryPerimeter=0;" edge="1" parent="WIyWlLk6GJQsqaUBKTNV-1" source="8yurtoqpaKrfjurdvBEN-142" target="8yurtoqpaKrfjurdvBEN-179">
          <mxGeometry x="-0.0741" width="160" relative="1" as="geometry">
            <mxPoint x="-169.38" y="410" as="sourcePoint" />
            <mxPoint x="-130" y="460" as="targetPoint" />
            <mxPoint as="offset" />
            <Array as="points">
              <mxPoint x="-160" y="378" />
              <mxPoint x="-160" y="440" />
            </Array>
          </mxGeometry>
        </mxCell>
        <mxCell id="8yurtoqpaKrfjurdvBEN-195" value="Use" style="endArrow=open;endSize=12;dashed=1;html=1;rounded=0;exitX=-0.01;exitY=0.211;exitDx=0;exitDy=0;exitPerimeter=0;" edge="1" parent="WIyWlLk6GJQsqaUBKTNV-1" source="8yurtoqpaKrfjurdvBEN-181">
          <mxGeometry x="-0.0741" width="160" relative="1" as="geometry">
            <mxPoint x="-123" y="478" as="sourcePoint" />
            <mxPoint x="-247" y="840" as="targetPoint" />
            <mxPoint as="offset" />
            <Array as="points">
              <mxPoint x="-160" y="480" />
              <mxPoint x="-160" y="710" />
              <mxPoint x="-160" y="840" />
            </Array>
          </mxGeometry>
        </mxCell>
        <mxCell id="8yurtoqpaKrfjurdvBEN-196" value="Use" style="endArrow=open;endSize=12;dashed=1;html=1;rounded=0;exitX=0.531;exitY=1.028;exitDx=0;exitDy=0;exitPerimeter=0;" edge="1" parent="WIyWlLk6GJQsqaUBKTNV-1" source="8yurtoqpaKrfjurdvBEN-141">
          <mxGeometry x="-0.0741" width="160" relative="1" as="geometry">
            <mxPoint x="-940" y="820" as="sourcePoint" />
            <mxPoint x="-560" y="960" as="targetPoint" />
            <mxPoint as="offset" />
            <Array as="points">
              <mxPoint x="-881" y="960" />
            </Array>
          </mxGeometry>
        </mxCell>
        <mxCell id="8yurtoqpaKrfjurdvBEN-197" value="Use" style="endArrow=open;endSize=12;dashed=1;html=1;rounded=0;entryX=0.496;entryY=1.118;entryDx=0;entryDy=0;entryPerimeter=0;exitX=0.501;exitY=-0.035;exitDx=0;exitDy=0;exitPerimeter=0;" edge="1" parent="WIyWlLk6GJQsqaUBKTNV-1" source="8yurtoqpaKrfjurdvBEN-162" target="8yurtoqpaKrfjurdvBEN-157">
          <mxGeometry x="-0.0741" width="160" relative="1" as="geometry">
            <mxPoint x="-220" y="1263" as="sourcePoint" />
            <mxPoint x="-220" y="1050" as="targetPoint" />
            <mxPoint as="offset" />
            <Array as="points">
              <mxPoint x="-400" y="1100" />
            </Array>
          </mxGeometry>
        </mxCell>
      </root>
    </mxGraphModel>
  </diagram>
</mxfile>
